<?xml version="1.0" standalone="no"?>
<!DOCTYPE svg PUBLIC "-//W3C//DTD SVG 20010904//EN"
 "http://www.w3.org/TR/2001/REC-SVG-20010904/DTD/svg10.dtd">
<svg version="1.0" xmlns="http://www.w3.org/2000/svg"
 width="980.000000pt" height="980.000000pt" viewBox="0 0 980.000000 980.000000"
 preserveAspectRatio="xMidYMid meet">

<g transform="translate(0.000000,980.000000) scale(0.100000,-0.100000)"
fill="#000000" stroke="none">
<path d="M7160 9154 c-263 -32 -626 -113 -824 -185 -244 -89 -502 -234 -706
-397 -225 -180 -491 -481 -631 -714 -27 -45 -49 -76 -49 -69 0 20 127 356 180
474 26 59 44 107 40 107 -12 0 -179 -149 -268 -240 -105 -106 -166 -197 -248
-367 -125 -261 -293 -721 -365 -1000 -13 -51 -27 -93 -30 -93 -12 0 -22 228
-17 377 3 79 2 140 -2 136 -4 -4 -60 -127 -125 -273 -191 -434 -322 -665 -461
-819 l-58 -64 -13 29 c-7 16 -12 47 -13 69 l0 40 -20 -25 c-30 -39 -135 -256
-165 -340 -54 -153 -91 -344 -98 -500 l-2 -55 -26 50 c-87 165 -109 416 -55
623 8 28 11 52 8 52 -12 0 -80 -114 -126 -210 -60 -126 -94 -249 -109 -394
l-12 -119 -67 117 c-36 64 -68 113 -71 109 -2 -4 -8 -53 -11 -109 -8 -113 5
-267 33 -374 16 -63 16 -70 2 -70 -33 0 -122 50 -185 104 -69 59 -104 81 -113
72 -3 -3 -6 -72 -7 -153 -1 -179 3 -188 112 -307 87 -95 137 -173 164 -253 18
-52 27 -158 14 -170 -3 -3 -50 10 -106 29 -55 19 -102 33 -104 30 -6 -6 16
-67 73 -195 63 -145 67 -157 46 -157 -21 0 -54 23 -178 124 -53 43 -100 77
-103 74 -6 -6 75 -168 176 -353 141 -258 220 -543 220 -790 0 -153 -12 -215
-81 -415 -242 -698 -425 -1282 -549 -1755 -17 -66 -39 -125 -47 -132 -9 -7
-13 -19 -10 -28 9 -22 86 -21 102 2 14 19 83 20 495 13 164 -3 237 -1 268 8
45 14 62 36 43 55 -35 35 16 32 249 -14 253 -50 376 -62 625 -63 235 -1 298 7
325 39 10 13 9 19 -5 35 -26 28 -99 53 -279 94 -222 50 -269 78 -200 118 50
29 172 41 359 34 184 -7 287 -16 755 -70 423 -49 552 -58 800 -58 314 1 537
36 607 96 41 35 22 67 -54 96 -111 42 -223 57 -648 90 -695 54 -1460 170
-1549 235 -86 63 191 96 650 77 267 -11 396 -21 999 -76 500 -46 569 -50 895
-50 264 -1 346 3 440 17 278 44 449 116 424 181 -26 68 -292 106 -739 106
-317 0 -861 -36 -905 -60 -35 -20 26 -22 168 -6 264 29 503 38 820 33 169 -3
339 -10 377 -16 193 -31 227 -80 99 -141 -128 -61 -337 -90 -656 -90 -254 0
-440 11 -978 60 -645 58 -834 70 -1160 70 -315 0 -439 -10 -507 -40 -154 -68
90 -143 782 -239 259 -37 522 -65 855 -91 392 -31 507 -50 578 -92 90 -55 -32
-105 -315 -129 -209 -18 -505 -1 -1028 61 -532 63 -805 80 -980 61 -131 -15
-218 -45 -223 -78 -6 -42 80 -77 298 -123 118 -25 202 -54 220 -75 9 -11 6
-16 -12 -27 -17 -10 -77 -13 -238 -12 -231 0 -325 10 -548 55 -189 38 -333 52
-383 39 -44 -12 -46 -16 -23 -41 14 -16 14 -18 -8 -31 -18 -10 -71 -12 -238
-9 -118 3 -270 5 -338 5 -67 1 -122 4 -122 7 0 9 139 209 184 264 22 28 71 83
108 123 106 115 147 242 172 532 12 136 19 171 59 290 113 341 230 668 255
714 81 150 279 288 776 542 l220 112 -59 7 c-61 8 -284 1 -320 -9 -63 -19 75
35 220 86 371 130 669 218 854 253 47 8 87 17 89 20 2 2 -30 26 -72 54 -77 50
-190 98 -292 125 -31 8 -58 17 -61 19 -12 13 385 336 647 526 85 62 242 169
348 239 l194 127 -30 12 c-17 7 -66 15 -109 19 -153 12 -367 -45 -583 -157
-63 -32 -110 -55 -105 -50 6 4 102 77 215 162 408 305 1000 778 1000 798 0 11
-211 -8 -320 -29 -58 -11 -154 -33 -213 -50 -59 -16 -110 -30 -113 -30 -3 0
39 34 93 76 54 42 136 108 183 147 122 101 491 474 591 597 120 148 203 260
196 266 -10 10 -232 -70 -325 -118 -52 -27 -128 -72 -169 -101 -41 -29 -83
-59 -95 -67 -11 -8 13 35 54 95 174 255 307 510 539 1035 341 775 481 974 922
1313 136 105 250 228 288 312 40 87 16 170 -57 201 -43 18 -237 17 -394 -2z"/>
</g>
</svg>
